<?xml version="1.0" encoding="utf-8"?>
<!-- Generator: Adobe Illustrator 24.0.1, SVG Export Plug-In . SVG Version: 6.00 Build 0)  -->
<svg version="1.0" id="logo" xmlns="http://www.w3.org/2000/svg" xmlns:xlink="http://www.w3.org/1999/xlink" x="0px" y="0px"
	 viewBox="0 0 512 512" style="enable-background:new 0 0 512 512;" xml:space="preserve">
<style type="text/css">
	.st0{fill:url(#SVGID_1_);}
	.st1{fill:#22282E;}
	.st2{fill:#FFFFFF;}
</style>
<g>
	<linearGradient id="SVGID_1_" gradientUnits="userSpaceOnUse" x1="30.6785" y1="30.6785" x2="481.3215" y2="481.3215">
		<stop  offset="0" style="stop-color:#027E58"/>
		<stop  offset="0.4781" style="stop-color:#18BFAF"/>
		<stop  offset="1" style="stop-color:#ABEC2F"/>
	</linearGradient>
	<path class="st0" d="M414.5,509h-317C45.3,509,3,466.7,3,414.5v-317C3,45.3,45.3,3,97.5,3h317C466.7,3,509,45.3,509,97.5v317
		C509,466.7,466.7,509,414.5,509z"/>
	<circle class="st1" cx="256" cy="256" r="194.6"/>
	<g>
		<g>
			<path class="st2" d="M256,415.5c-3.8-4-7.5-7.8-11.1-11.7c-20.2-21.8-40.5-43.4-60.4-65.5c-12.4-13.7-23.9-28.2-32.5-44.7
				c-7.1-13.8-11.2-28.4-12-43.9c-1.9-34.4,9-64.4,32.6-89.1c24.5-25.8,55.2-38.9,91-36.8c40.5,2.3,71.4,21.7,92.6,56.2
				c8.6,13.9,13.9,29.1,15.6,45.4c0.5,5.1,0.6,10.2,0.9,15.6c-7,0-13.7,0-20.5,0c-0.1-1.2-0.1-2.3-0.1-3.4
				c-0.7-30.1-12.7-54.7-36.1-73.5c-20.4-16.5-44.2-23.4-70.2-19.9c-34.9,4.6-60.5,23.3-76.6,54.6c-6.8,13.3-9.9,27.6-10,42.5
				c0,3.1,0,3.2,3.1,3.2c18.8,0,37.6,0,56.4,0c0.4,0,0.9-0.1,1.5-0.1c1.3-11.6,6.6-21,16.3-27.6c6.5-4.5,13.8-6.4,21.7-5.9
				c14.8,0.8,30.5,13.3,31.9,33.7c1.6,0,3.1,0,4.7,0c5.6,0,11.2-0.1,16.8,0c1.6,0,2.4-0.5,3-2c3.1-7,6.3-13.9,9.5-20.9
				c0.3-0.7,0.7-1.4,1.4-2.7c5.9,14.6,11.5,28.5,17.4,43c2-4.6,3.8-8.9,5.8-13.1c0.3-0.7,1.3-1.6,2-1.6c11.2-0.1,22.4-0.1,33.6-0.1
				c0.4,0,0.7,0.1,1.3,0.2c0,3.9,0.1,7.7-0.1,11.6c0,0.4-1.2,1.2-1.9,1.2c-6.1,0.1-12.1,0.1-18.2,0.1c-1.5,0-2.1,0.4-2.4,1.9
				c-6,28-19.3,52.3-37.6,73.9c-19.8,23.3-40.1,46.2-60.2,69.3C262.4,408.6,259.3,411.9,256,415.5z M314.3,272.6
				c-1.9-4-3.5-7.5-5.1-11c-0.5-1.2-1.3-1.7-2.6-1.6c-5.7,0.1-11.4,0.1-17,0c-1.6,0-2.3,0.5-3,2c-6.2,12.6-16.4,20-30.4,21
				c-14.7,1-27.6-7.4-33.3-20.9c-0.6-1.4-1.3-1.9-2.8-1.9c-17.9,0.1-35.8,0.1-53.6,0.1c-1.7,0-3.5,0-5.4,0c0.3,1.4,0.5,2.6,0.8,3.8
				c3.7,15.4,11.6,28.5,22,40.2c18,20.3,36.1,40.4,54.2,60.6c5.9,6.6,11.8,13.2,17.8,19.9c0.6-0.7,1.1-1.2,1.6-1.8
				c5.6-6.6,11.2-13.1,16.8-19.7c14.3-16.9,28.6-33.8,42.9-50.7c7.2-8.6,14.3-17.3,19.7-27.2c0.7-1.3,0.9-2.4,0.3-3.8
				c-2-5.1-3.8-10.2-5.8-15.3c-2.1-5.3-4.2-10.7-6.4-16.4C321.3,257.6,317.9,264.8,314.3,272.6z M274.2,246.4
				c0.1-10.6-8.5-19.6-18.9-19.6c-10.7-0.1-19.8,9.1-19.8,19.9c0,10.8,8.5,19.8,18.7,19.9C265.2,266.6,274.2,257.6,274.2,246.4z"/>
			<path class="st2" d="M183.7,238.6c0.1-6.2,1.2-11.8,2.9-17.3c8.4-28.3,34.3-49.8,63.8-52.4c19.9-1.8,37.5,4.1,52.7,17.2
				c7.6,6.5,13.5,14.3,17.8,23.3c0.7,1.4,0.8,2.6,0.1,4c-3.5,7.4-6.8,14.9-10.2,22.3c-0.2,0.5-0.5,0.9-1.2,1.4
				c-0.1-0.8-0.2-1.5-0.3-2.3c-1.9-23.1-20.3-42.8-43.1-46.9c-32.2-5.8-61.6,18.3-64.6,48.6c-0.2,1.6-0.6,2.2-2.3,2.2
				C194.1,238.6,189.1,238.6,183.7,238.6z"/>
		</g>
	</g>
</g>
</svg>
